999
Inkscape export via OpenSCAD DXF Export
  0
SECTION
  2
HEADER
  9
$ACADVER
  1
AC1014
  9
$HANDSEED
  5
FFFF
  9
$MEASUREMENT
 70
     1
  0
ENDSEC
  0
SECTION
  2
TABLES
  0
TABLE
  2
VPORT
  5
8
330
0
100
AcDbSymbolTable
 70
     4
  0
VPORT
  5
2E
330
8
100
AcDbSymbolTableRecord
100
AcDbViewportTableRecord
  2
*ACTIVE
 70
     0
 10
0.0
 20
0.0
 11
1.0
 21
1.0
 12
210.0
 22
148.5
 13
0.0
 23
0.0
 14
10.0
 24
10.0
 15
10.0
 25
10.0
 16
0.0
 26
0.0
 36
1.0
 17
0.0
 27
0.0
 37
0.0
 40
341.0
 41
1.24
 42
50.0
 43
0.0
 44
0.0
 50
0.0
 51
0.0
 71
     0
 72
   100
 73
     1
 74
     3
 75
     0
 76
     0
 77
     0
 78
     0
  0
ENDTAB
  0
TABLE
  2
LTYPE
  5
5
330
0
100
AcDbSymbolTable
 70
     1
  0
LTYPE
  5
14
330
5
100
AcDbSymbolTableRecord
100
AcDbLinetypeTableRecord
  2
BYBLOCK
 70
     0
  3

 72
    65
 73
     0
 40
0.0
  0
LTYPE
  5
15
330
5
100
AcDbSymbolTableRecord
100
AcDbLinetypeTableRecord
  2
BYLAYER
 70
     0
  3

 72
    65
 73
     0
 40
0.0
  0
LTYPE
  5
16
330
5
100
AcDbSymbolTableRecord
100
AcDbLinetypeTableRecord
  2
CONTINUOUS
 70
     0
  3
Solid line
 72
    65
 73
     0
 40
0.0
  0
ENDTAB
  0
TABLE
0
TABLE
2
LAYER
5
2
330
0
100
AcDbSymbolTable
70
4
0
LAYER
5
10
330
2
100
AcDbSymbolTableRecord
100
AcDbLayerTableRecord
2
Layer_1
70
0
62
7
6
CONTINUOUS
0
LAYER
5
10
330
2
100
AcDbSymbolTableRecord
100
AcDbLayerTableRecord
2
10_[ppm=30,feed=300]
70
0
62
7
6
CONTINUOUS
0
LAYER
5
10
330
2
100
AcDbSymbolTableRecord
100
AcDbLayerTableRecord
2
15_[feed=3000,_ppm=3]
70
0
62
7
6
CONTINUOUS
0
LAYER
5
10
330
2
100
AcDbSymbolTableRecord
100
AcDbLayerTableRecord
2
0
70
0
62
7
6
CONTINUOUS
0
ENDTAB
0
ENDSEC
  0
ENDTAB
  0
TABLE
  2
STYLE
  5
3
330
0
100
AcDbSymbolTable
 70
     1
  0
STYLE
  5
11
330
3
100
AcDbSymbolTableRecord
100
AcDbTextStyleTableRecord
  2
STANDARD
 70
     0
 40
0.0
 41
1.0
 50
0.0
 71
     0
 42
2.5
  3
txt
  4

  0
ENDTAB
  0
TABLE
  2
VIEW
  5
6
330
0
100
AcDbSymbolTable
 70
     0
  0
ENDTAB
  0
TABLE
  2
UCS
  5
7
330
0
100
AcDbSymbolTable
 70
     0
  0
ENDTAB
  0
TABLE
  2
APPID
  5
9
330
0
100
AcDbSymbolTable
 70
     2
  0
APPID
  5
12
330
9
100
AcDbSymbolTableRecord
100
AcDbRegAppTableRecord
  2
ACAD
 70
     0
  0
ENDTAB
  0
TABLE
  2
DIMSTYLE
  5
A
330
0
100
AcDbSymbolTable
 70
     1
  0
DIMSTYLE
105
27
330
A
100
AcDbSymbolTableRecord
100
AcDbDimStyleTableRecord
  2
ISO-25
 70
     0
  3

  4

  5

  6

  7

 40
1.0
 41
2.5
 42
0.625
 43
3.75
 44
1.25
 45
0.0
 46
0.0
 47
0.0
 48
0.0
140
2.5
141
2.5
142
0.0
143
0.03937007874016
144
1.0
145
0.0
146
1.0
147
0.625
 71
     0
 72
     0
 73
     0
 74
     0
 75
     0
 76
     0
 77
     1
 78
     8
170
     0
171
     3
172
     1
173
     0
174
     0
175
     0
176
     0
177
     0
178
     0
270
     2
271
     2
272
     2
273
     2
274
     3
340
11
275
     0
280
     0
281
     0
282
     0
283
     0
284
     8
285
     0
286
     0
287
     3
288
     0
  0
ENDTAB
  0
TABLE
  2
BLOCK_RECORD
  5
1
330
0
100
AcDbSymbolTable
 70
     1
  0
BLOCK_RECORD
  5
1F
330
1
100
AcDbSymbolTableRecord
100
AcDbBlockTableRecord
  2
*MODEL_SPACE
  0
BLOCK_RECORD
  5
1B
330
1
100
AcDbSymbolTableRecord
100
AcDbBlockTableRecord
  2
*PAPER_SPACE
  0
ENDTAB
  0
ENDSEC
  0
SECTION
  2
BLOCKS
  0
BLOCK
  5
20
330
1F
100
AcDbEntity
  8
0
100
AcDbBlockBegin
  2
*MODEL_SPACE
 70
     0
 10
0.0
 20
0.0
 30
0.0
  3
*MODEL_SPACE
  1

  0
ENDBLK
  5
21
330
1F
100
AcDbEntity
  8
0
100
AcDbBlockEnd
  0
BLOCK
  5
1C
330
1B
100
AcDbEntity
 67
     1
  8
0
100
AcDbBlockBegin
  2
*PAPER_SPACE
  1

  0
ENDBLK
  5
1D
330
1B
100
AcDbEntity
 67
     1
  8
0
100
AcDbBlockEnd
  0
ENDSEC
  0
SECTION
  2
ENTITIES
0
DIMENSION
5
83
100
AcDbEntity
62
256
370
-1
6
ByLayer
1
total_width
3
Standard
70
0
71
5
72
1
41
1.0
100
AcDbAlignedDimension
13
-176.087436
23
0.000000
33
0.0
14
304.800000
24
0.000000
34
0.0
50
0.000000
100
AcDbRotatedDimension
0
DIMENSION
5
83
100
AcDbEntity
62
256
370
-1
6
ByLayer
1
total_height
3
Standard
70
0
71
5
72
1
41
1.0
100
AcDbAlignedDimension
13
0.000000
23
-104.799994
33
0.0
14
0.000000
24
201.411118
34
0.0
50
90.000000
100
AcDbRotatedDimension
0
DIMENSION
8
Layer_1
5
83
100
AcDbEntity
62
256
370
-1
6
ByLayer
1
Layer_1_width
3
Standard
70
0
71
5
72
1
41
1.0
100
AcDbAlignedDimension
13
-1.000000
23
0.000000
33
0.0
14
304.800000
24
0.000000
34
0.0
50
0.000000
100
AcDbRotatedDimension
0
DIMENSION
8
Layer_1
5
83
100
AcDbEntity
62
256
370
-1
6
ByLayer
1
Layer_1_height
3
Standard
70
0
71
5
72
1
41
1.0
100
AcDbAlignedDimension
13
0.000000
23
-104.799994
33
0.0
14
0.000000
24
201.411118
34
0.0
50
90.000000
100
AcDbRotatedDimension
0
DIMENSION
8
10_[ppm=30,feed=300]
5
83
100
AcDbEntity
62
256
370
-1
6
ByLayer
1
10_[ppm=30,feed=300]_width
3
Standard
70
0
71
5
72
1
41
1.0
100
AcDbAlignedDimension
13
-176.087436
23
0.000000
33
0.0
14
-168.097482
24
0.000000
34
0.0
50
0.000000
100
AcDbRotatedDimension
0
DIMENSION
8
10_[ppm=30,feed=300]
5
83
100
AcDbEntity
62
256
370
-1
6
ByLayer
1
10_[ppm=30,feed=300]_height
3
Standard
70
0
71
5
72
1
41
1.0
100
AcDbAlignedDimension
13
0.000000
23
68.793109
33
0.0
14
0.000000
24
70.681407
34
0.0
50
90.000000
100
AcDbRotatedDimension
0
DIMENSION
8
15_[feed=3000,_ppm=3]
5
83
100
AcDbEntity
62
256
370
-1
6
ByLayer
1
15_[feed=3000,_ppm=3]_width
3
Standard
70
0
71
5
72
1
41
1.0
100
AcDbAlignedDimension
13
43.037310
23
0.000000
33
0.0
14
80.017595
24
0.000000
34
0.0
50
0.000000
100
AcDbRotatedDimension
0
DIMENSION
8
15_[feed=3000,_ppm=3]
5
83
100
AcDbEntity
62
256
370
-1
6
ByLayer
1
15_[feed=3000,_ppm=3]_height
3
Standard
70
0
71
5
72
1
41
1.0
100
AcDbAlignedDimension
13
0.000000
23
112.559069
33
0.0
14
0.000000
24
154.908318
34
0.0
50
90.000000
100
AcDbRotatedDimension
0
DIMENSION
8
0
5
83
100
AcDbEntity
62
256
370
-1
6
ByLayer
1
0_width
3
Standard
70
0
71
5
72
1
41
1.0
100
AcDbAlignedDimension
13
3.122642
23
0.000000
33
0.0
14
203.122643
24
0.000000
34
0.0
50
0.000000
100
AcDbRotatedDimension
0
DIMENSION
8
0
5
83
100
AcDbEntity
62
256
370
-1
6
ByLayer
1
0_height
3
Standard
70
0
71
5
72
1
41
1.0
100
AcDbAlignedDimension
13
0.000000
23
-91.068104
33
0.0
14
0.000000
24
97.931899
34
0.0
50
90.000000
100
AcDbRotatedDimension
62
0
0
LWPOLYLINE
100
AcDbPolyline
8
Layer_1
90
6
70
0
10
0.000000
20
-104.799994
30
0.0
10
304.800000
20
-104.799994
30
0.0
10
304.800000
20
200.000006
30
0.0
10
0.000000
20
200.000006
30
0.0
10
0.000000
20
-104.799994
30
0.0
10
0.000000
20
-104.799994
30
0.0
62
0
0
LWPOLYLINE
100
AcDbPolyline
8
Layer_1
90
2
70
0
10
0.846667
20
200.846673
30
0.0
10
-0.846667
20
199.153340
30
0.0
62
0
0
LWPOLYLINE
100
AcDbPolyline
8
Layer_1
90
2
70
0
10
0.000000
20
201.411118
30
0.0
10
0.000000
20
198.588895
30
0.0
62
0
0
LWPOLYLINE
100
AcDbPolyline
8
Layer_1
90
2
70
0
10
2.257778
20
198.871118
30
0.0
10
1.128889
20
197.742229
30
0.0
62
0
0
LWPOLYLINE
100
AcDbPolyline
8
Layer_1
90
2
70
0
10
1.693333
20
199.435562
30
0.0
10
0.564444
20
198.306673
30
0.0
62
0
0
LWPOLYLINE
100
AcDbPolyline
8
Layer_1
90
2
70
0
10
1.128889
20
200.000006
30
0.0
10
0.000000
20
198.871118
30
0.0
62
0
0
LWPOLYLINE
100
AcDbPolyline
8
Layer_1
90
2
70
0
10
-1.000000
20
-96.999994
30
0.0
10
1.000000
20
-96.999994
30
0.0
62
0
0
LWPOLYLINE
100
AcDbPolyline
8
Layer_1
90
2
70
0
10
-1.000000
20
-96.999994
30
0.0
10
-0.800000
20
-96.999994
30
0.0
62
0
0
LWPOLYLINE
100
AcDbPolyline
8
10_[ppm=30,feed=300]
90
4
70
0
10
-176.087436
20
70.688087
30
0.0
10
-176.087436
20
68.793109
30
0.0
10
-168.097482
20
68.793109
30
0.0
10
-168.097482
20
70.681407
30
0.0
62
0
0
LWPOLYLINE
100
AcDbPolyline
8
15_[feed=3000,_ppm=3]
90
54
70
0
10
53.770928
20
131.616204
30
0.0
10
53.770928
20
150.673451
30
0.0
10
52.994817
20
150.266131
30
0.0
10
52.009895
20
149.575464
30
0.0
10
51.020661
20
148.578573
30
0.0
10
50.129978
20
147.394778
30
0.0
10
49.440711
20
146.143401
30
0.0
10
49.015578
20
144.965204
30
0.0
10
48.723785
20
143.672674
30
0.0
10
48.535447
20
140.925860
30
0.0
10
48.866152
20
138.265456
30
0.0
10
49.223163
20
137.080937
30
0.0
10
49.706355
20
136.053956
30
0.0
10
50.408055
20
134.854512
30
0.0
10
49.337824
20
134.856205
30
0.0
10
48.285273
20
134.939147
30
0.0
10
47.286938
20
135.176746
30
0.0
10
46.359551
20
135.556897
30
0.0
10
45.519844
20
136.067494
30
0.0
10
44.784550
20
136.696431
30
0.0
10
44.170400
20
137.431602
30
0.0
10
43.694126
20
138.260901
30
0.0
10
43.372461
20
139.172221
30
0.0
10
43.037310
20
141.292182
30
0.0
10
43.082027
20
143.397619
30
0.0
10
43.485834
20
145.445297
30
0.0
10
44.227952
20
147.391982
30
0.0
10
45.287605
20
149.194436
30
0.0
10
46.644012
20
150.809426
30
0.0
10
48.276397
20
152.193715
30
0.0
10
50.163981
20
153.304067
30
0.0
10
52.669489
20
154.238744
30
0.0
10
55.347739
20
154.782457
30
0.0
10
57.985266
20
154.908318
30
0.0
10
60.368603
20
154.589440
30
0.0
10
61.571784
20
154.286474
30
0.0
10
68.043021
20
139.505599
30
0.0
10
74.514261
20
124.724721
30
0.0
10
74.587269
20
139.808562
30
0.0
10
74.660275
20
154.892403
30
0.0
10
77.338936
20
154.892403
30
0.0
10
80.017595
20
154.892403
30
0.0
10
80.017595
20
133.725736
30
0.0
10
80.017595
20
112.559069
30
0.0
10
75.995928
20
112.566689
30
0.0
10
71.974261
20
112.574309
30
0.0
10
65.765372
20
126.289104
30
0.0
10
59.556483
20
140.003879
30
0.0
10
59.483244
20
126.281473
30
0.0
10
59.410002
20
112.559069
30
0.0
10
56.590466
20
112.559069
30
0.0
10
53.770928
20
112.559069
30
0.0
10
53.770928
20
131.616317
30
0.0
10
53.770928
20
131.616204
30
0.0
62
0
0
LWPOLYLINE
100
AcDbPolyline
8
0
90
2
70
0
10
3.122642
20
97.931899
30
0.0
10
3.122642
20
-91.068104
30
0.0
62
0
0
LWPOLYLINE
100
AcDbPolyline
8
0
90
2
70
0
10
203.122643
20
-91.068104
30
0.0
10
203.122643
20
97.931899
30
0.0
62
0
0
LWPOLYLINE
100
AcDbPolyline
8
0
90
2
70
0
10
3.122642
20
97.931899
30
0.0
10
203.122643
20
97.931899
30
0.0
62
0
0
LWPOLYLINE
100
AcDbPolyline
8
0
90
13
70
0
10
39.122644
20
83.931898
30
0.0
10
39.905397
20
84.035745
30
0.0
10
40.622644
20
84.333822
30
0.0
10
41.239410
20
84.805938
30
0.0
10
41.720721
20
85.431899
30
0.0
10
42.022164
20
86.161706
30
0.0
10
42.122645
20
86.931899
30
0.0
10
42.022164
20
87.702092
30
0.0
10
41.720721
20
88.431900
30
0.0
10
41.239410
20
89.057861
30
0.0
10
40.622644
20
89.529976
30
0.0
10
39.905397
20
89.828054
30
0.0
10
39.122644
20
89.931900
30
0.0
62
0
0
LWPOLYLINE
100
AcDbPolyline
8
0
90
13
70
0
10
35.122643
20
89.931900
30
0.0
10
34.339890
20
89.828054
30
0.0
10
33.622643
20
89.529976
30
0.0
10
33.005876
20
89.057861
30
0.0
10
32.524566
20
88.431900
30
0.0
10
32.223123
20
87.702092
30
0.0
10
32.122642
20
86.931899
30
0.0
10
32.223123
20
86.161706
30
0.0
10
32.524566
20
85.431899
30
0.0
10
33.005876
20
84.805938
30
0.0
10
33.622643
20
84.333822
30
0.0
10
34.339890
20
84.035745
30
0.0
10
35.122643
20
83.931898
30
0.0
62
0
0
LWPOLYLINE
100
AcDbPolyline
8
0
90
2
70
0
10
35.122643
20
89.931900
30
0.0
10
39.122644
20
89.931900
30
0.0
62
0
0
LWPOLYLINE
100
AcDbPolyline
8
0
90
2
70
0
10
35.122643
20
83.931898
30
0.0
10
39.122644
20
83.931898
30
0.0
62
0
0
LWPOLYLINE
100
AcDbPolyline
8
0
90
13
70
0
10
171.122642
20
83.931898
30
0.0
10
171.905395
20
84.035745
30
0.0
10
172.622643
20
84.333822
30
0.0
10
173.239409
20
84.805938
30
0.0
10
173.720719
20
85.431899
30
0.0
10
174.022162
20
86.161706
30
0.0
10
174.122643
20
86.931899
30
0.0
10
174.022162
20
87.702092
30
0.0
10
173.720719
20
88.431900
30
0.0
10
173.239409
20
89.057861
30
0.0
10
172.622643
20
89.529976
30
0.0
10
171.905395
20
89.828054
30
0.0
10
171.122642
20
89.931900
30
0.0
62
0
0
LWPOLYLINE
100
AcDbPolyline
8
0
90
13
70
0
10
167.122642
20
89.931900
30
0.0
10
166.339888
20
89.828054
30
0.0
10
165.622641
20
89.529976
30
0.0
10
165.005875
20
89.057861
30
0.0
10
164.524564
20
88.431900
30
0.0
10
164.223121
20
87.702092
30
0.0
10
164.122640
20
86.931899
30
0.0
10
164.223121
20
86.161706
30
0.0
10
164.524564
20
85.431899
30
0.0
10
165.005875
20
84.805938
30
0.0
10
165.622641
20
84.333822
30
0.0
10
166.339888
20
84.035745
30
0.0
10
167.122642
20
83.931898
30
0.0
62
0
0
LWPOLYLINE
100
AcDbPolyline
8
0
90
2
70
0
10
167.122642
20
89.931900
30
0.0
10
171.122642
20
89.931900
30
0.0
62
0
0
LWPOLYLINE
100
AcDbPolyline
8
0
90
2
70
0
10
167.122642
20
83.931898
30
0.0
10
171.122642
20
83.931898
30
0.0
62
0
0
LWPOLYLINE
100
AcDbPolyline
8
0
90
9
70
0
10
39.122644
20
-83.068092
30
0.0
10
40.288707
20
-82.830841
30
0.0
10
41.240598
20
-82.187576
30
0.0
10
41.882211
20
-81.234570
30
0.0
10
42.117438
20
-80.068097
30
0.0
10
41.882211
20
-78.901623
30
0.0
10
41.240598
20
-77.948618
30
0.0
10
40.288707
20
-77.305353
30
0.0
10
39.122644
20
-77.068101
30
0.0
62
0
0
LWPOLYLINE
100
AcDbPolyline
8
0
90
9
70
0
10
35.122643
20
-77.068101
30
0.0
10
33.956579
20
-77.305353
30
0.0
10
33.004688
20
-77.948618
30
0.0
10
32.363076
20
-78.901623
30
0.0
10
32.127848
20
-80.068097
30
0.0
10
32.363076
20
-81.234570
30
0.0
10
33.004688
20
-82.187576
30
0.0
10
33.956579
20
-82.830841
30
0.0
10
35.122643
20
-83.068092
30
0.0
62
0
0
LWPOLYLINE
100
AcDbPolyline
8
0
90
2
70
0
10
35.122643
20
-83.068092
30
0.0
10
39.122644
20
-83.068092
30
0.0
62
0
0
LWPOLYLINE
100
AcDbPolyline
8
0
90
2
70
0
10
35.122643
20
-77.068101
30
0.0
10
39.122644
20
-77.068101
30
0.0
62
0
0
LWPOLYLINE
100
AcDbPolyline
8
0
90
9
70
0
10
171.122642
20
-83.068092
30
0.0
10
172.288706
20
-82.830841
30
0.0
10
173.240597
20
-82.187576
30
0.0
10
173.882209
20
-81.234570
30
0.0
10
174.117437
20
-80.068097
30
0.0
10
173.882209
20
-78.901623
30
0.0
10
173.240597
20
-77.948618
30
0.0
10
172.288706
20
-77.305353
30
0.0
10
171.122642
20
-77.068101
30
0.0
62
0
0
LWPOLYLINE
100
AcDbPolyline
8
0
90
9
70
0
10
167.122642
20
-77.068101
30
0.0
10
165.956578
20
-77.305353
30
0.0
10
165.004687
20
-77.948618
30
0.0
10
164.363074
20
-78.901623
30
0.0
10
164.127847
20
-80.068097
30
0.0
10
164.363074
20
-81.234570
30
0.0
10
165.004687
20
-82.187576
30
0.0
10
165.956578
20
-82.830841
30
0.0
10
167.122642
20
-83.068092
30
0.0
62
0
0
LWPOLYLINE
100
AcDbPolyline
8
0
90
2
70
0
10
167.122642
20
-83.068092
30
0.0
10
171.122642
20
-83.068092
30
0.0
62
0
0
LWPOLYLINE
100
AcDbPolyline
8
0
90
2
70
0
10
167.122642
20
-77.068101
30
0.0
10
171.122642
20
-77.068101
30
0.0
62
0
0
LWPOLYLINE
100
AcDbPolyline
8
0
90
2
70
0
10
3.122642
20
-91.068104
30
0.0
10
203.122643
20
-91.068104
30
0.0
62
0
0
LWPOLYLINE
100
AcDbPolyline
8
0
90
2
70
0
10
180.161449
20
-31.663553
30
0.0
10
151.161448
20
-31.663553
30
0.0
62
0
0
LWPOLYLINE
100
AcDbPolyline
8
0
90
2
70
0
10
180.161449
20
-55.343552
30
0.0
10
151.161448
20
-55.343552
30
0.0
62
0
0
LWPOLYLINE
100
AcDbPolyline
8
0
90
2
70
0
10
151.161448
20
-31.663553
30
0.0
10
151.161448
20
-55.343552
30
0.0
62
0
0
LWPOLYLINE
100
AcDbPolyline
8
0
90
2
70
0
10
180.161449
20
-31.663553
30
0.0
10
180.161449
20
-55.343552
30
0.0
62
0
0
LWPOLYLINE
100
AcDbPolyline
8
0
90
2
70
0
10
139.002406
20
-55.343552
30
0.0
10
127.602406
20
-55.343552
30
0.0
62
0
0
LWPOLYLINE
100
AcDbPolyline
8
0
90
2
70
0
10
139.002406
20
-43.943552
30
0.0
10
127.602406
20
-43.943552
30
0.0
62
0
0
LWPOLYLINE
100
AcDbPolyline
8
0
90
2
70
0
10
127.602406
20
-55.343552
30
0.0
10
127.602406
20
-43.943552
30
0.0
62
0
0
LWPOLYLINE
100
AcDbPolyline
8
0
90
2
70
0
10
139.002406
20
-55.343552
30
0.0
10
139.002406
20
-43.943552
30
0.0
62
0
0
LWPOLYLINE
100
AcDbPolyline
8
0
90
50
70
0
10
70.686543
20
-37.584114
30
0.0
10
70.515058
20
-35.001152
30
0.0
10
70.011542
20
-32.496220
30
0.0
10
69.192399
20
-30.097735
30
0.0
10
68.074039
20
-27.834114
30
0.0
10
66.672866
20
-25.733775
30
0.0
10
65.005288
20
-23.825134
30
0.0
10
63.087711
20
-22.136610
30
0.0
10
60.936543
20
-20.696619
30
0.0
10
58.613890
20
-19.553648
30
0.0
10
56.192796
20
-18.737240
30
0.0
10
53.706076
20
-18.247395
30
0.0
10
51.186543
20
-18.084114
30
0.0
10
48.667009
20
-18.247395
30
0.0
10
46.180289
20
-18.737240
30
0.0
10
43.759196
20
-19.553648
30
0.0
10
41.436542
20
-20.696619
30
0.0
10
39.285374
20
-22.136610
30
0.0
10
37.367798
20
-23.825135
30
0.0
10
35.700220
20
-25.733775
30
0.0
10
34.299047
20
-27.834114
30
0.0
10
33.180686
20
-30.097735
30
0.0
10
32.361544
20
-32.496220
30
0.0
10
31.858027
20
-35.001153
30
0.0
10
31.686542
20
-37.584115
30
0.0
10
31.858027
20
-40.167077
30
0.0
10
32.361544
20
-42.672009
30
0.0
10
33.180686
20
-45.070494
30
0.0
10
34.299047
20
-47.334115
30
0.0
10
35.700220
20
-49.434454
30
0.0
10
37.367798
20
-51.343095
30
0.0
10
39.285374
20
-53.031619
30
0.0
10
41.436543
20
-54.471611
30
0.0
10
43.759196
20
-55.614581
30
0.0
10
46.180289
20
-56.430989
30
0.0
10
48.667009
20
-56.920834
30
0.0
10
51.186543
20
-57.084115
30
0.0
10
53.706076
20
-56.920834
30
0.0
10
56.192796
20
-56.430989
30
0.0
10
58.613890
20
-55.614581
30
0.0
10
60.936543
20
-54.471611
30
0.0
10
63.087711
20
-53.031619
30
0.0
10
65.005288
20
-51.343095
30
0.0
10
66.672866
20
-49.434454
30
0.0
10
68.074039
20
-47.334115
30
0.0
10
69.192399
20
-45.070494
30
0.0
10
70.011542
20
-42.672009
30
0.0
10
70.515058
20
-40.167077
30
0.0
10
70.686543
20
-37.584115
30
0.0
10
70.686543
20
-37.584115
30
0.0
62
0
0
LWPOLYLINE
100
AcDbPolyline
8
0
90
14
70
0
10
70.301544
20
-18.084114
30
0.0
10
70.100582
20
-17.334114
30
0.0
10
69.551544
20
-16.785075
30
0.0
10
68.801543
20
-16.584113
30
0.0
10
68.051542
20
-16.785075
30
0.0
10
67.502504
20
-17.334114
30
0.0
10
67.301542
20
-18.084114
30
0.0
10
67.502504
20
-18.834115
30
0.0
10
68.051542
20
-19.383153
30
0.0
10
68.801543
20
-19.584115
30
0.0
10
69.551544
20
-19.383153
30
0.0
10
70.100582
20
-18.834115
30
0.0
10
70.301544
20
-18.084114
30
0.0
10
70.301544
20
-18.084114
30
0.0
62
0
0
LWPOLYLINE
100
AcDbPolyline
8
0
90
14
70
0
10
35.071544
20
-18.084114
30
0.0
10
34.870889
20
-17.333725
30
0.0
10
34.321810
20
-16.784309
30
0.0
10
33.571544
20
-16.583194
30
0.0
10
32.821278
20
-16.784309
30
0.0
10
32.272199
20
-17.333725
30
0.0
10
32.071544
20
-18.084114
30
0.0
10
32.272199
20
-18.834503
30
0.0
10
32.821278
20
-19.383919
30
0.0
10
33.571544
20
-19.585034
30
0.0
10
34.321810
20
-19.383919
30
0.0
10
34.870889
20
-18.834503
30
0.0
10
35.071544
20
-18.084114
30
0.0
10
35.071544
20
-18.084114
30
0.0
62
0
0
LWPOLYLINE
100
AcDbPolyline
8
0
90
2
70
0
10
94.550605
20
3.901454
30
0.0
10
173.050604
20
3.901454
30
0.0
62
0
0
LWPOLYLINE
100
AcDbPolyline
8
0
90
2
70
0
10
94.550605
20
55.401453
30
0.0
10
173.050604
20
55.401453
30
0.0
62
0
0
LWPOLYLINE
100
AcDbPolyline
8
0
90
2
70
0
10
173.050604
20
3.901454
30
0.0
10
173.050604
20
55.401453
30
0.0
62
0
0
LWPOLYLINE
100
AcDbPolyline
8
0
90
2
70
0
10
94.550605
20
3.901454
30
0.0
10
94.550605
20
55.401453
30
0.0
62
0
0
LWPOLYLINE
100
AcDbPolyline
8
0
90
14
70
0
10
179.640605
20
62.141453
30
0.0
10
179.436964
20
62.901453
30
0.0
10
178.880605
20
63.457812
30
0.0
10
178.120604
20
63.661454
30
0.0
10
177.360604
20
63.457812
30
0.0
10
176.804245
20
62.901453
30
0.0
10
176.600604
20
62.141453
30
0.0
10
176.804245
20
61.381452
30
0.0
10
177.360604
20
60.825093
30
0.0
10
178.120604
20
60.621452
30
0.0
10
178.880605
20
60.825093
30
0.0
10
179.436964
20
61.381452
30
0.0
10
179.640605
20
62.141453
30
0.0
10
179.640605
20
62.141453
30
0.0
62
0
0
LWPOLYLINE
100
AcDbPolyline
8
0
90
14
70
0
10
91.000605
20
62.141453
30
0.0
10
90.796964
20
62.901453
30
0.0
10
90.240605
20
63.457812
30
0.0
10
89.480604
20
63.661454
30
0.0
10
88.720604
20
63.457812
30
0.0
10
88.164245
20
62.901453
30
0.0
10
87.960604
20
62.141453
30
0.0
10
88.164245
20
61.381452
30
0.0
10
88.720604
20
60.825093
30
0.0
10
89.480604
20
60.621452
30
0.0
10
90.240605
20
60.825093
30
0.0
10
90.796964
20
61.381452
30
0.0
10
91.000605
20
62.141453
30
0.0
10
91.000605
20
62.141453
30
0.0
62
0
0
LWPOLYLINE
100
AcDbPolyline
8
0
90
14
70
0
10
179.640605
20
-2.838546
30
0.0
10
179.436964
20
-2.078545
30
0.0
10
178.880605
20
-1.522187
30
0.0
10
178.120604
20
-1.318545
30
0.0
10
177.360604
20
-1.522187
30
0.0
10
176.804245
20
-2.078545
30
0.0
10
176.600604
20
-2.838546
30
0.0
10
176.804245
20
-3.598546
30
0.0
10
177.360604
20
-4.154905
30
0.0
10
178.120604
20
-4.358547
30
0.0
10
178.880605
20
-4.154905
30
0.0
10
179.436964
20
-3.598546
30
0.0
10
179.640605
20
-2.838546
30
0.0
10
179.640605
20
-2.838546
30
0.0
62
0
0
LWPOLYLINE
100
AcDbPolyline
8
0
90
14
70
0
10
91.000605
20
-2.838546
30
0.0
10
90.796964
20
-2.078545
30
0.0
10
90.240605
20
-1.522186
30
0.0
10
89.480604
20
-1.318545
30
0.0
10
88.720604
20
-1.522186
30
0.0
10
88.164245
20
-2.078545
30
0.0
10
87.960604
20
-2.838546
30
0.0
10
88.164245
20
-3.598546
30
0.0
10
88.720604
20
-4.154905
30
0.0
10
89.480604
20
-4.358547
30
0.0
10
90.240605
20
-4.154905
30
0.0
10
90.796964
20
-3.598546
30
0.0
10
91.000605
20
-2.838546
30
0.0
10
91.000605
20
-2.838546
30
0.0
62
0
0
LWPOLYLINE
100
AcDbPolyline
8
0
90
26
70
0
10
174.570604
20
-14.418547
30
0.0
10
174.449450
20
-13.505335
30
0.0
10
174.101693
20
-12.668547
30
0.0
10
173.550892
20
-11.948987
30
0.0
10
172.820604
20
-11.387458
30
0.0
10
171.969163
20
-11.035775
30
0.0
10
171.070604
20
-10.918547
30
0.0
10
170.172046
20
-11.035775
30
0.0
10
169.320604
20
-11.387458
30
0.0
10
168.590317
20
-11.948987
30
0.0
10
168.039515
20
-12.668547
30
0.0
10
167.691759
20
-13.505335
30
0.0
10
167.570604
20
-14.418547
30
0.0
10
167.691759
20
-15.331759
30
0.0
10
168.039515
20
-16.168547
30
0.0
10
168.590317
20
-16.888108
30
0.0
10
169.320604
20
-17.449636
30
0.0
10
170.172046
20
-17.801319
30
0.0
10
171.070604
20
-17.918547
30
0.0
10
171.969163
20
-17.801319
30
0.0
10
172.820604
20
-17.449636
30
0.0
10
173.550892
20
-16.888108
30
0.0
10
174.101693
20
-16.168547
30
0.0
10
174.449450
20
-15.331759
30
0.0
10
174.570604
20
-14.418547
30
0.0
10
174.570604
20
-14.418547
30
0.0
62
0
0
LWPOLYLINE
100
AcDbPolyline
8
0
90
14
70
0
10
154.350604
20
-14.418547
30
0.0
10
154.149949
20
-13.668158
30
0.0
10
153.600870
20
-13.118742
30
0.0
10
152.850604
20
-12.917627
30
0.0
10
152.100339
20
-13.118742
30
0.0
10
151.551260
20
-13.668158
30
0.0
10
151.350605
20
-14.418547
30
0.0
10
151.551260
20
-15.168936
30
0.0
10
152.100339
20
-15.718352
30
0.0
10
152.850604
20
-15.919467
30
0.0
10
153.600870
20
-15.718352
30
0.0
10
154.149949
20
-15.168936
30
0.0
10
154.350604
20
-14.418547
30
0.0
10
154.350604
20
-14.418547
30
0.0
62
0
0
LWPOLYLINE
100
AcDbPolyline
8
0
90
14
70
0
10
139.530605
20
-14.418547
30
0.0
10
139.329950
20
-13.668158
30
0.0
10
138.780870
20
-13.118742
30
0.0
10
138.030605
20
-12.917627
30
0.0
10
137.280339
20
-13.118742
30
0.0
10
136.731260
20
-13.668158
30
0.0
10
136.530605
20
-14.418547
30
0.0
10
136.731260
20
-15.168936
30
0.0
10
137.280339
20
-15.718352
30
0.0
10
138.030605
20
-15.919467
30
0.0
10
138.780870
20
-15.718352
30
0.0
10
139.329950
20
-15.168936
30
0.0
10
139.530605
20
-14.418547
30
0.0
10
139.530605
20
-14.418547
30
0.0
  0
ENDSEC
  0
SECTION
  2
OBJECTS
  0
DICTIONARY
  5
C
330
0
100
AcDbDictionary
  3
ACAD_GROUP
350
D
  3
ACAD_MLINESTYLE
350
17
  0
DICTIONARY
  5
D
330
C
100
AcDbDictionary
  0
DICTIONARY
  5
1A
330
C
100
AcDbDictionary
  0
DICTIONARY
  5
17
330
C
100
AcDbDictionary
  3
STANDARD
350
18
  0
DICTIONARY
  5
19
330
C
100
AcDbDictionary
  0
ENDSEC
  0
EOF
